<mxfile host="app.diagrams.net" agent="Mozilla/5.0 (Windows NT 10.0; Win64; x64) AppleWebKit/537.36 (KHTML, like Gecko) Chrome/131.0.0.0 Safari/537.36" version="26.0.5">
  <diagram name="第 1 页" id="LOiiT-unrX2Uw0yE5oOl">
    <mxGraphModel dx="1816" dy="509" grid="1" gridSize="10" guides="1" tooltips="1" connect="1" arrows="1" fold="1" page="1" pageScale="1" pageWidth="827" pageHeight="2000" math="0" shadow="0">
      <root>
        <mxCell id="0" />
        <mxCell id="1" parent="0" />
        <mxCell id="IYtFgDfIM9FLVhiezO-n-1" value="" style="rounded=0;whiteSpace=wrap;html=1;" vertex="1" parent="1">
          <mxGeometry x="140" y="260" width="620" height="30" as="geometry" />
        </mxCell>
        <mxCell id="IYtFgDfIM9FLVhiezO-n-2" value="&lt;b&gt;&lt;font style=&quot;font-size: 18px;&quot;&gt;FLASH_128KB&lt;/font&gt;&lt;/b&gt;" style="text;html=1;align=center;verticalAlign=middle;whiteSpace=wrap;rounded=0;" vertex="1" parent="1">
          <mxGeometry x="-30" y="245" width="206" height="60" as="geometry" />
        </mxCell>
        <mxCell id="IYtFgDfIM9FLVhiezO-n-3" value="" style="shape=flexArrow;endArrow=classic;html=1;rounded=0;width=10;endSize=9.33;" edge="1" parent="1">
          <mxGeometry width="50" height="50" relative="1" as="geometry">
            <mxPoint x="140" y="380" as="sourcePoint" />
            <mxPoint x="140" y="300" as="targetPoint" />
          </mxGeometry>
        </mxCell>
        <mxCell id="IYtFgDfIM9FLVhiezO-n-4" value="" style="shape=flexArrow;endArrow=classic;html=1;rounded=0;width=10;endSize=9.33;" edge="1" parent="1">
          <mxGeometry width="50" height="50" relative="1" as="geometry">
            <mxPoint x="760" y="380" as="sourcePoint" />
            <mxPoint x="760" y="300" as="targetPoint" />
          </mxGeometry>
        </mxCell>
        <mxCell id="IYtFgDfIM9FLVhiezO-n-5" value="&lt;font style=&quot;font-size: 18px;&quot;&gt;0x0&lt;/font&gt;" style="text;html=1;align=center;verticalAlign=middle;whiteSpace=wrap;rounded=0;" vertex="1" parent="1">
          <mxGeometry x="110" y="380" width="60" height="30" as="geometry" />
        </mxCell>
        <mxCell id="IYtFgDfIM9FLVhiezO-n-6" value="&lt;font style=&quot;font-size: 18px;&quot;&gt;0x20000&lt;/font&gt;" style="text;html=1;align=center;verticalAlign=middle;whiteSpace=wrap;rounded=0;" vertex="1" parent="1">
          <mxGeometry x="710" y="380" width="100" height="30" as="geometry" />
        </mxCell>
        <mxCell id="IYtFgDfIM9FLVhiezO-n-7" value="" style="shape=flexArrow;endArrow=classic;html=1;rounded=0;width=10;endSize=9.33;" edge="1" parent="1" source="IYtFgDfIM9FLVhiezO-n-8">
          <mxGeometry width="50" height="50" relative="1" as="geometry">
            <mxPoint x="270" y="380" as="sourcePoint" />
            <mxPoint x="270" y="300" as="targetPoint" />
          </mxGeometry>
        </mxCell>
        <mxCell id="IYtFgDfIM9FLVhiezO-n-9" value="" style="endArrow=none;html=1;rounded=0;entryX=0.208;entryY=1.1;entryDx=0;entryDy=0;entryPerimeter=0;" edge="1" parent="1" source="IYtFgDfIM9FLVhiezO-n-1">
          <mxGeometry width="50" height="50" relative="1" as="geometry">
            <mxPoint x="390" y="397" as="sourcePoint" />
            <mxPoint x="268.96000000000004" y="290" as="targetPoint" />
          </mxGeometry>
        </mxCell>
        <mxCell id="IYtFgDfIM9FLVhiezO-n-11" value="" style="shape=link;html=1;rounded=0;entryX=0.21;entryY=0.956;entryDx=0;entryDy=0;entryPerimeter=0;exitX=0.21;exitY=0.042;exitDx=0;exitDy=0;exitPerimeter=0;" edge="1" parent="1" source="IYtFgDfIM9FLVhiezO-n-1" target="IYtFgDfIM9FLVhiezO-n-1">
          <mxGeometry width="100" relative="1" as="geometry">
            <mxPoint x="230" y="270" as="sourcePoint" />
            <mxPoint x="330" y="270" as="targetPoint" />
            <Array as="points" />
          </mxGeometry>
        </mxCell>
        <mxCell id="IYtFgDfIM9FLVhiezO-n-12" value="" style="shape=flexArrow;endArrow=classic;html=1;rounded=0;" edge="1" parent="1">
          <mxGeometry width="50" height="50" relative="1" as="geometry">
            <mxPoint x="251" y="256" as="sourcePoint" />
            <mxPoint x="251" y="196" as="targetPoint" />
          </mxGeometry>
        </mxCell>
        <mxCell id="IYtFgDfIM9FLVhiezO-n-13" value="" style="shape=curlyBracket;whiteSpace=wrap;html=1;rounded=1;flipH=1;labelPosition=right;verticalLabelPosition=middle;align=left;verticalAlign=middle;rotation=90;" vertex="1" parent="1">
          <mxGeometry x="241" y="-14" width="20" height="400" as="geometry" />
        </mxCell>
        <mxCell id="IYtFgDfIM9FLVhiezO-n-14" value="" style="rounded=0;whiteSpace=wrap;html=1;" vertex="1" parent="1">
          <mxGeometry x="51" y="136" width="400" height="30" as="geometry" />
        </mxCell>
        <mxCell id="IYtFgDfIM9FLVhiezO-n-15" value="" style="shape=flexArrow;endArrow=classic;html=1;rounded=0;width=10;endSize=9.33;" edge="1" parent="1" source="IYtFgDfIM9FLVhiezO-n-17">
          <mxGeometry width="50" height="50" relative="1" as="geometry">
            <mxPoint x="232" y="379" as="sourcePoint" />
            <mxPoint x="232" y="299" as="targetPoint" />
          </mxGeometry>
        </mxCell>
        <mxCell id="IYtFgDfIM9FLVhiezO-n-16" value="" style="shape=flexArrow;endArrow=classic;html=1;rounded=0;width=10;endSize=9.33;" edge="1" parent="1" target="IYtFgDfIM9FLVhiezO-n-8">
          <mxGeometry width="50" height="50" relative="1" as="geometry">
            <mxPoint x="270" y="380" as="sourcePoint" />
            <mxPoint x="270" y="300" as="targetPoint" />
          </mxGeometry>
        </mxCell>
        <mxCell id="IYtFgDfIM9FLVhiezO-n-8" value="&lt;font style=&quot;font-size: 18px;&quot;&gt;0x5000&lt;/font&gt;" style="text;html=1;align=center;verticalAlign=middle;whiteSpace=wrap;rounded=0;" vertex="1" parent="1">
          <mxGeometry x="250" y="350" width="70" height="30" as="geometry" />
        </mxCell>
        <mxCell id="IYtFgDfIM9FLVhiezO-n-17" value="&lt;font style=&quot;font-size: 18px;&quot;&gt;0x3C00&lt;/font&gt;" style="text;html=1;align=center;verticalAlign=middle;whiteSpace=wrap;rounded=0;" vertex="1" parent="1">
          <mxGeometry x="190" y="350" width="60" height="30" as="geometry" />
        </mxCell>
        <mxCell id="IYtFgDfIM9FLVhiezO-n-19" value="" style="shape=link;html=1;rounded=0;entryX=0.21;entryY=0.956;entryDx=0;entryDy=0;entryPerimeter=0;exitX=0.21;exitY=0.042;exitDx=0;exitDy=0;exitPerimeter=0;" edge="1" parent="1">
          <mxGeometry width="100" relative="1" as="geometry">
            <mxPoint x="231" y="261" as="sourcePoint" />
            <mxPoint x="231" y="289" as="targetPoint" />
            <Array as="points" />
          </mxGeometry>
        </mxCell>
        <mxCell id="IYtFgDfIM9FLVhiezO-n-20" value="BOOTLOADER" style="text;html=1;align=center;verticalAlign=middle;whiteSpace=wrap;rounded=0;" vertex="1" parent="1">
          <mxGeometry x="154" y="260" width="66" height="30" as="geometry" />
        </mxCell>
        <mxCell id="IYtFgDfIM9FLVhiezO-n-21" value="Cfg" style="text;html=1;align=center;verticalAlign=middle;whiteSpace=wrap;rounded=0;" vertex="1" parent="1">
          <mxGeometry x="231" y="260" width="40" height="30" as="geometry" />
        </mxCell>
        <mxCell id="IYtFgDfIM9FLVhiezO-n-25" value="" style="shape=flexArrow;endArrow=classic;html=1;rounded=0;width=10;endSize=9.33;" edge="1" parent="1" source="IYtFgDfIM9FLVhiezO-n-23">
          <mxGeometry width="50" height="50" relative="1" as="geometry">
            <mxPoint x="699" y="380" as="sourcePoint" />
            <mxPoint x="699" y="300" as="targetPoint" />
          </mxGeometry>
        </mxCell>
        <mxCell id="IYtFgDfIM9FLVhiezO-n-28" value="" style="shape=flexArrow;endArrow=classic;html=1;rounded=0;width=10;endSize=9.33;" edge="1" parent="1" target="IYtFgDfIM9FLVhiezO-n-23">
          <mxGeometry width="50" height="50" relative="1" as="geometry">
            <mxPoint x="699" y="380" as="sourcePoint" />
            <mxPoint x="699" y="300" as="targetPoint" />
          </mxGeometry>
        </mxCell>
        <mxCell id="IYtFgDfIM9FLVhiezO-n-23" value="&lt;font style=&quot;font-size: 18px;&quot;&gt;0x1E000&lt;/font&gt;" style="text;html=1;align=center;verticalAlign=middle;whiteSpace=wrap;rounded=0;" vertex="1" parent="1">
          <mxGeometry x="650" y="350" width="70" height="30" as="geometry" />
        </mxCell>
        <mxCell id="IYtFgDfIM9FLVhiezO-n-29" value="" style="shape=link;html=1;rounded=0;entryX=0.21;entryY=0.956;entryDx=0;entryDy=0;entryPerimeter=0;exitX=0.21;exitY=0.042;exitDx=0;exitDy=0;exitPerimeter=0;" edge="1" parent="1">
          <mxGeometry width="100" relative="1" as="geometry">
            <mxPoint x="698" y="261" as="sourcePoint" />
            <mxPoint x="698" y="289" as="targetPoint" />
            <Array as="points" />
          </mxGeometry>
        </mxCell>
      </root>
    </mxGraphModel>
  </diagram>
</mxfile>
